HIERARCHY
ROOT Hips
{
	OFFSET -3.958830 18.904000 13.208200
	CHANNELS 6 Xposition Yposition Zposition Zrotation Yrotation Xrotation 
	JOINT LHipJoint
	{
		OFFSET 0.000000 0.000000 0.000000
		CHANNELS 3 Zrotation Yrotation Xrotation
		JOINT LeftUpLeg
		{
			OFFSET 1.800000 -1.400000 0.085000
			CHANNELS 3 Zrotation Yrotation Xrotation
			JOINT LeftLeg
			{
				OFFSET 2.215000 -6.000000 0.000000
				CHANNELS 3 Zrotation Yrotation Xrotation
				JOINT LeftFoot
				{
					OFFSET 2.500000 -6.900000 0.000000
					CHANNELS 3 Zrotation Yrotation Xrotation
					JOINT LeftToeBase
					{
						OFFSET 0.200000 -0.500000 1.950000
						CHANNELS 3 Zrotation Yrotation Xrotation
						End Site
						{
							OFFSET 0.000000 0.000000 0.000000
						}
					}
				}
			}
		}
	}
	JOINT RHipJoint
	{
		OFFSET 0.000000 0.000000 0.000000
		CHANNELS 3 Zrotation Yrotation Xrotation
		JOINT RightUpLeg
		{
			OFFSET -1.800000 -1.400000 0.085000
			CHANNELS 3 Zrotation Yrotation Xrotation
			JOINT RightLeg
			{
				OFFSET -2.215000 -6.000000 0.000000
				CHANNELS 3 Zrotation Yrotation Xrotation
				JOINT RightFoot
				{
					OFFSET -2.500000 -6.900000 0.000000
					CHANNELS 3 Zrotation Yrotation Xrotation
					JOINT RightToeBase
					{
						OFFSET -0.200000 -0.500000 1.950000
						CHANNELS 3 Zrotation Yrotation Xrotation
						End Site
						{
							OFFSET 0.000000 0.000000 0.000000
						}
					}
				}
			}
		}
	}
	JOINT LowerBack
	{
		OFFSET 0.000000 0.000000 0.000000
		CHANNELS 3 Zrotation Yrotation Xrotation
		JOINT Spine
		{
			OFFSET -0.087000 1.940000 -0.288900
			CHANNELS 3 Zrotation Yrotation Xrotation
			JOINT Spine1
			{
				OFFSET 0.000000 1.950000 0.060000
				CHANNELS 3 Zrotation Yrotation Xrotation
				JOINT Neck
				{
					OFFSET 0.000000 0.000000 0.000000
					CHANNELS 3 Zrotation Yrotation Xrotation
					JOINT Neck1
					{
						OFFSET 0.000000 1.600000 0.340000
						CHANNELS 3 Zrotation Yrotation Xrotation
						JOINT Head
						{
							OFFSET 0.000000 1.667000 -0.240000
							CHANNELS 3 Zrotation Yrotation Xrotation
							End Site
							{
								OFFSET 0.000000 0.000000 0.000000
							}
						}
					}
				}
				JOINT LeftShoulder
				{
					OFFSET 0.000000 0.000000 0.000000
					CHANNELS 3 Zrotation Yrotation Xrotation
					JOINT LeftArm
					{
						OFFSET 2.700000 1.550000 -0.730000
						CHANNELS 3 Zrotation Yrotation Xrotation
						JOINT LeftForeArm
						{
							OFFSET 5.450000 0.000000 0.000000
							CHANNELS 3 Zrotation Yrotation Xrotation
							JOINT LeftHand
							{
								OFFSET 3.450000 0.000000 0.000000
								CHANNELS 3 Zrotation Yrotation Xrotation
								JOINT LeftHandIndex1
								{
									OFFSET 0.750000 0.000000 0.000000
									CHANNELS 3 Zrotation Yrotation Xrotation
									End Site
									{
										OFFSET 0.000000 0.000000 0.000000
									}
								}
							}
						}
					}
				}
				JOINT RightShoulder
				{
					OFFSET 0.000000 0.000000 0.000000
					CHANNELS 3 Zrotation Yrotation Xrotation
					JOINT RightArm
					{
						OFFSET -2.700000 1.550000 -0.730000
						CHANNELS 3 Zrotation Yrotation Xrotation
						JOINT RightForeArm
						{
							OFFSET -5.450000 0.000000 0.000000
							CHANNELS 3 Zrotation Yrotation Xrotation
							JOINT RightHand
							{
								OFFSET -3.450000 0.000000 0.000000
								CHANNELS 3 Zrotation Yrotation Xrotation
								JOINT RightHandIndex1
								{
									OFFSET -0.750000 0.000000 0.000000
									CHANNELS 3 Zrotation Yrotation Xrotation
									End Site
									{
										OFFSET 0.000000 0.000000 0.000000
									}
								}
							}
						}
					}
				}
			}
		}
	}
}
MOTION
Frames: 7
Frame Time: 0.016667
-0.266870 16.448980 -0.825950 -0.645860 3.119471 1.156631 -15.197946 13.516052 3.680131 2.671048 -0.986540 -7.218061 -9.954178 3.896739 -2.289073 -0.415419 4.626054 3.434395 -0.081090 -0.179440 -0.334790 18.148561 -10.681140 2.717029 -0.136201 2.503729 -17.819278 3.138995 -4.386748 20.482770 0.286572 -3.843108 3.178563 0.231660 1.210120 0.335220 -3.415800 -2.524157 -7.983694 9.138770 -9.259589 20.344540 -6.393047 -5.164507 -12.544105 1.427354 -0.945179 -7.542879 -1.837657 7.223956 23.296310 -2.986390 5.018930 6.214220 13.173352 7.314042 -2.650609 17.293854 -13.763664 -2.007160 74.328739 21.084280 13.220871 -5.421714 3.378675 -0.300260 0.958180 -0.714420 0.280570 -16.498510 -5.168047 0.977123 -8.067468 16.974499 -4.880315 -103.444763 -21.305094 22.435703 2.635867 -2.551480 -0.417730 0.353640 0.305700 0.117080 
-0.266230 16.456330 -0.861130 -0.616273 2.888681 0.805732 -15.190475 13.529373 3.621938 2.379905 -0.971990 -7.363373 -9.259800 3.913676 -1.500650 -0.499253 4.557023 3.449270 -0.027810 -0.131160 -0.269720 18.152690 -10.722952 2.721168 -0.453654 2.533150 -17.803031 3.680334 -4.601558 21.061415 0.255395 -3.927095 3.129338 0.280030 1.181660 0.323190 -3.428574 -2.452387 -7.938432 8.981889 -8.673388 20.757687 -6.123445 -4.686023 -11.709291 1.310998 -0.981266 -7.285553 -1.855061 6.804305 22.846021 -3.421240 4.703470 4.925920 12.944063 6.803364 -2.747012 17.652517 -14.442759 -2.299200 71.871969 20.824204 12.102254 -5.406885 3.338894 -0.267720 0.941720 -0.696050 0.276420 -15.978684 -4.651177 0.869923 -8.376749 16.648042 -5.365584 -103.615283 -21.291741 22.392505 2.595311 -2.551561 -0.435840 0.383820 0.286900 0.088320 
-0.260810 16.463020 -0.925920 -0.590436 2.273295 -0.179472 -15.208190 13.611848 3.527226 1.993674 -0.880260 -7.421258 -8.213265 4.013789 0.080677 -0.644829 4.514230 3.443130 0.054980 -0.067920 -0.168810 18.134217 -10.747116 2.713624 -0.702219 2.720522 -17.957447 3.741305 -4.886704 23.283263 0.195036 -4.149835 2.994480 0.360080 1.139610 0.317960 -3.365368 -2.517814 -7.854684 8.366923 -7.102573 21.953070 -5.105456 -3.587000 -9.886794 1.301015 -1.098290 -7.023511 -1.996837 5.652340 21.819088 -4.202170 3.609770 2.939090 12.899241 5.796666 -2.755473 18.225439 -16.329898 -2.935350 67.915129 19.762263 9.786722 -5.369286 3.290545 -0.212480 0.916600 -0.672240 0.262360 -15.622706 -3.540068 0.711285 -10.015790 14.889181 -6.392907 -100.145407 -20.810991 20.122687 2.546509 -2.556533 -0.468420 0.424580 0.272530 0.040290 
-0.263630 16.467790 -0.999100 -0.904057 2.221293 -2.563724 -15.244147 13.747555 3.419268 2.662173 -0.600823 -6.514712 -7.649603 4.290738 1.934394 -0.571643 4.460239 3.409210 0.249900 0.145850 -0.026410 18.096602 -10.753894 2.678596 -0.888295 2.738001 -16.726207 4.049294 -5.471165 26.378401 0.025756 -4.570886 2.808754 0.432520 0.970000 0.344510 -3.260633 -2.717674 -7.791783 8.068435 -5.455240 23.769411 -4.161317 -2.442729 -6.557139 1.577379 -1.158555 -6.966280 -2.130442 3.807326 21.897808 -4.458590 2.124260 1.205820 11.604196 3.162251 -2.300137 21.206436 -17.242395 -4.467354 61.528781 17.936346 6.818397 -5.118909 3.378206 -0.196560 0.810610 -0.554860 0.305600 -14.585723 -0.776118 1.172205 -12.902211 10.934210 -7.812446 -93.978708 -18.951897 15.548131 2.554903 -2.636934 -0.344790 0.337270 0.127500 0.048000 
-0.261140 16.477080 -1.092680 -1.195499 0.915611 -5.645168 -15.210967 13.763450 3.273742 3.281741 -0.196107 -4.914582 -7.265840 4.683286 4.035581 -0.461314 4.486607 3.365575 0.414140 0.363230 0.066390 18.134790 -10.854424 2.657906 -1.325149 2.944653 -15.543211 4.336833 -6.321559 30.962676 -0.172422 -5.293219 2.512901 0.519010 0.860710 0.363680 -3.337240 -2.525993 -7.682531 8.616457 -4.314825 25.877225 -4.181058 -1.550489 -1.940199 1.277069 -1.389328 -7.152474 -2.341617 3.120190 21.127463 -4.053230 1.289440 0.180190 11.440173 0.133605 -1.527570 22.771971 -16.784164 -5.784197 56.707449 14.434258 3.729918 -4.950015 3.512856 -0.243290 0.744060 -0.476300 0.355500 -13.848287 2.449393 1.697233 -15.011167 9.208667 -9.343694 -85.823304 -16.176977 9.547370 2.551189 -2.739630 -0.227610 0.265640 -0.001330 0.089730 
-0.254100 16.491660 -1.195120 -1.520193 -0.502924 -8.482522 -15.125442 13.670097 3.087658 3.651448 0.131508 -3.482909 -6.317346 4.925178 6.078396 -0.484221 4.562848 3.331932 0.509240 0.517000 0.094380 18.234388 -11.014067 2.669505 -1.787858 3.339825 -14.885582 4.364647 -7.424353 36.605689 -0.386759 -6.244910 2.171958 0.628980 0.864170 0.357680 -3.575320 -2.048004 -7.534995 10.004265 -4.296088 27.158132 -5.656427 -1.475929 3.887172 1.199604 -1.568676 -7.520342 -2.338861 3.469070 19.707759 -3.543950 1.077190 -1.165130 12.688333 -2.567382 -0.732935 23.320799 -15.173416 -6.443624 52.800537 9.964288 0.841520 -4.934092 3.528659 -0.269780 0.750280 -0.455660 0.395400 -15.022769 5.027553 2.230973 -16.326736 9.751266 -10.639814 -73.587811 -13.445222 3.544368 2.531784 -2.745785 -0.210710 0.313780 -0.043590 0.113400 
-0.249890 16.515750 -1.305930 -1.709686 -1.031052 -11.078619 -15.050988 13.620039 2.904736 3.407749 0.240338 -2.718077 -4.554251 4.936649 8.630239 -0.591342 4.581906 3.318057 0.631130 0.682910 0.159600 18.315562 -11.184212 2.687845 -2.007171 3.617632 -14.069718 3.634632 -8.271495 42.044086 -0.609849 -7.171545 1.839507 0.775620 0.872680 0.339760 -3.788035 -1.652406 -7.386883 11.232833 -4.896103 28.711773 -7.618639 -1.621892 8.816511 1.561129 -1.842817 -7.885461 -2.456987 3.348335 18.077166 -3.367350 0.487170 -2.565580 15.545110 -3.519024 -0.559231 22.067849 -15.532737 -6.316286 49.245397 4.423291 -1.878100 -4.941263 3.531441 -0.281780 0.762350 -0.448990 0.428950 -18.589134 5.996524 2.700077 -16.397861 11.261790 -10.372996 -57.760411 -11.914380 -0.334171 2.606448 -2.730602 -0.224010 0.390630 -0.085030 0.113990 
